<svg width="26" height="26" viewBox="0 0 26 26" fill="none" xmlns="http://www.w3.org/2000/svg">
<path fill-rule="evenodd" clip-rule="evenodd" d="M5.63268 1.51671C5.83727 1.24392 6.15836 1.08337 6.49935 1.08337H19.4993C19.8403 1.08337 20.1614 1.24392 20.366 1.51671L23.616 5.85004C23.7567 6.03756 23.8327 6.26564 23.8327 6.50004V21.6667C23.8327 22.5287 23.4903 23.3553 22.8808 23.9648C22.2713 24.5743 21.4446 24.9167 20.5827 24.9167H5.41602C4.55406 24.9167 3.72741 24.5743 3.11792 23.9648C2.50843 23.3553 2.16602 22.5287 2.16602 21.6667V6.50004C2.16602 6.26564 2.24204 6.03756 2.38268 5.85004L5.63268 1.51671ZM7.04102 3.25004L4.33268 6.86115V21.6667C4.33268 21.954 4.44682 22.2296 4.64998 22.4327C4.85315 22.6359 5.1287 22.75 5.41602 22.75H20.5827C20.87 22.75 21.1455 22.6359 21.3487 22.4327C21.5519 22.2296 21.666 21.954 21.666 21.6667V6.86115L18.9577 3.25004H7.04102Z" fill="#2D3C56"/>
<path fill-rule="evenodd" clip-rule="evenodd" d="M2.16602 6.49996C2.16602 5.90165 2.65104 5.41663 3.24935 5.41663H22.7493C23.3477 5.41663 23.8327 5.90165 23.8327 6.49996C23.8327 7.09827 23.3477 7.58329 22.7493 7.58329H3.24935C2.65104 7.58329 2.16602 7.09827 2.16602 6.49996Z" fill="#2D3C56"/>
<path fill-rule="evenodd" clip-rule="evenodd" d="M8.66732 9.75C9.26563 9.75 9.75065 10.235 9.75065 10.8333C9.75065 11.6953 10.0931 12.5219 10.7026 13.1314C11.312 13.7409 12.1387 14.0833 13.0007 14.0833C13.8626 14.0833 14.6893 13.7409 15.2987 13.1314C15.9082 12.5219 16.2507 11.6953 16.2507 10.8333C16.2507 10.235 16.7357 9.75 17.334 9.75C17.9323 9.75 18.4173 10.235 18.4173 10.8333C18.4173 12.2699 17.8466 13.6477 16.8308 14.6635C15.815 15.6793 14.4372 16.25 13.0007 16.25C11.5641 16.25 10.1863 15.6793 9.17049 14.6635C8.15467 13.6477 7.58398 12.2699 7.58398 10.8333C7.58398 10.235 8.06901 9.75 8.66732 9.75Z" fill="#2D3C56"/>
</svg>
