<svg width="26" height="26" viewBox="0 0 26 26" fill="none" xmlns="http://www.w3.org/2000/svg">
<path fill-rule="evenodd" clip-rule="evenodd" d="M11.916 4.33329C7.72786 4.33329 4.33268 7.72847 4.33268 11.9166C4.33268 16.1048 7.72786 19.5 11.916 19.5C16.1042 19.5 19.4993 16.1048 19.4993 11.9166C19.4993 7.72847 16.1042 4.33329 11.916 4.33329ZM2.16602 11.9166C2.16602 6.53185 6.53124 2.16663 11.916 2.16663C17.3008 2.16663 21.666 6.53185 21.666 11.9166C21.666 17.3014 17.3008 21.6666 11.916 21.6666C6.53124 21.6666 2.16602 17.3014 2.16602 11.9166Z" fill="#2D3C56"/>
<path fill-rule="evenodd" clip-rule="evenodd" d="M17.2704 17.2714C17.6935 16.8483 18.3794 16.8483 18.8025 17.2714L23.515 21.9839C23.9381 22.407 23.9381 23.0929 23.515 23.516C23.0919 23.939 22.406 23.939 21.9829 23.516L17.2704 18.8035C16.8474 18.3804 16.8474 17.6945 17.2704 17.2714Z" fill="#2D3C56"/>
</svg>
